<?xml version="1.0" encoding="utf-8"?>
<!-- Generator: Adobe Illustrator 23.0.3, SVG Export Plug-In . SVG Version: 6.00 Build 0)  -->
<svg version="1.1" id="Layer_1" xmlns="http://www.w3.org/2000/svg" xmlns:xlink="http://www.w3.org/1999/xlink" x="0px" y="0px"
	 viewBox="0 0 800 800" style="enable-background:new 0 0 800 800;" xml:space="preserve">
<style type="text/css">
	.st0{fill:#B3D565;}
	.st1{fill:#F05B80;}
	.st2{fill:#F7C0D0;}
	.st3{opacity:0.93;fill:#F47D6F;}
	.st4{opacity:0.85;fill:#FED604;}
	.st5{fill:#EC3124;}
	.st6{fill:#ADD13C;}
	.st7{fill:#F04927;}
</style>
<path class="st0" d="M259.26,111.85l160.63,121.57c0,0,16.34,9.57,21.12,10.36c0,0-10.36-8.77-16.74-14.35
	c-6.38-5.58-167-127.54-167-127.54"/>
<path class="st1" d="M302.7,123.81c0,0-27.1,7.97-34.28,25.51s-5.98,22.32-5.18,27.1s6.78,4.78,5.18,11.96s3.99,13.15,3.99,17.94
	s1.59,16.34,5.18,19.53c3.59,3.19,7.57,9.57,7.57,11.16c0,1.59,6.97,11.56,6.87,13.95c-0.1,2.39,4.29,8.37,6.28,10.76
	c1.99,2.39,4.38,1.99,4.38,1.99s11.16,0.05,18.73-8.34c7.57-8.4,10.76-7.6,11.96-14.37c1.2-6.78,7.17-10.36,7.97-13.55
	s2.39-7.17,4.78-10.36s4.38-3.99,4.78-8.77c0.4-4.78,8.3-1.63,8.37-11.16c0.07-9.53,4.78-11.16,4.78-21.52s2.79-13.95,0-21.52
	c-2.79-7.57-4.38-18.33-8.77-20.33c-4.38-1.99-9.17-6.38-13.95-7.17c-4.78-0.8-12.27-2.79-12.27-2.79"/>
<path class="st2" d="M285.16,136.16c0,0,4.78,3.99,0,8.37s-4.38,7.17-8.37,7.17s8.37,5.98,1.99,5.98s5.58,15.94-0.4,15.15
	c-5.98-0.8,9.69,6.02,3.25,9.19s-9.11,3.96,0,5.16c9.11,1.2-5.34,2.02-0.11,6.59c5.23,4.57,3.64-2.2,5.23,4.57
	c1.59,6.78-10.1,13.55,0.53,17.14s7.44,3.59,7.44,7.97s3.99,5.58,3.99,11.56c0,5.98,1.2,16.34,1.99,18.73s7.37,3.97,7.37,3.97
	s8.57,0.82,8.97-7.95c0.4-8.77,1.99,1.2,3.99-9.17c1.99-10.36,10.76-9.17,9.96-12.75s1.3-5.98,0.05-8.77s8.32-3.99,6.72-7.57
	s10.36-11.96,7.97-14.55c-2.39-2.59,7.57-9.89,3.39-12.82c-4.19-2.93,14.55-12.89,7.37-14.49s3.99-4.78-2.79-9.17
	c-6.78-4.38,7.57-11.16,0.4-11.16s-2.79,0-7.17-4.78c-4.38-4.78-0.8-11.96-5.18-12.75s-12.36-3.99-12.36-3.99s-27.9-3.59-33.48-0.8
	C290.35,129.78,285.16,136.16,285.16,136.16z"/>
<path class="st3" d="M313.69,182.02c0,0-28.97,177.54-19.62,258.84s38.31,121.48,62.61,150.44c24.3,28.97,39.8,28.03,39.06,56.07
	c-0.74,28.03-9.15,62.61-30.65,71.95c-21.49,9.34-68.21,13.08-65.41,28.03s51.39,29.9,115.87,27.1s109.33-12.15,103.72-30.84
	c0,0-6.54-13.08-46.72-16.82c-40.18-3.74-48.59-46.72-50.46-60.74c-1.87-14.02-1.87-32.71,26.16-67.28
	c28.03-34.57,58.88-47.66,71.49-128.95s-18.23-287.8-19.16-287.8C499.64,182.02,389.38,188.56,313.69,182.02z"/>
<path class="st0" d="M407.52,488.42l42.57-277.95l14.21-73.32c0,0-0.58-6.25,1.95-8.27c2.53-2.03-0.51-2.53,3.04-5.57
	c3.54-3.04,3.54-3.29,5.06-3.04c1.52,0.25,1.77-3.29,4.05-3.04c2.28,0.25,5.57-1.29,6.08-0.01s4.81-2.31,4.81-0.51
	c0,1.79,103.81,42.3,103.81,42.3s3.8,13.93-6.08,14.69l-96.47-41.02c0,0-6.08-1.01-6.84,0.25c-0.76,1.27-1.01,1.27-3.8,1.27
	c-2.79,0-1.52,2.28-1.27,3.54c0.25,1.27-1.77,3.29-1.77,3.29l-21.01,119.76l-23.55,154.7l-11.39,72.93
	C420.94,488.42,412.84,490.46,407.52,488.42z"/>
<path class="st4" d="M303.09,257.73c0,0,21.81,5.59,34.89-0.02c13.08-5.61,31.77,0.31,40.18,2.49c8.41,2.18,29.9,6.23,38.31,0
	c8.41-6.23,20.56-0.9,30.84-0.76c10.28,0.14,37.38,0.8,44.85,0s19.13,0,19.13,0s8.07,59.96,10.83,120.23
	c1.55,33.83,0.67,70.2-2.39,90.16c-8.5,55.4-25.44,79.4-36.66,90.62s-34.83,38.33-34.83,38.33s-45.79-11.21-72.89,0l-7.97,4.14
	c0,0-48.99-44.88-67.04-115.25S294.63,293.45,303.09,257.73z"/>
<path class="st5" d="M221.79,157.68c0,0,10.76-4.78,14.35-8.77s7.57-9.96,10.76-14.75c3.19-4.78,6.78-11.56,10.36-15.54
	c3.59-3.99,7.97-20.33,19.93-24.31s14.35-15.54,21.92-19.53s9.96-8.37,9.96-12.36s7.97-0.4,7.97-7.17s2.39,4.38,2.39-7.57
	s4.38-9.17,4.78-13.95c0.4-4.78,3.19-5.18,3.19-7.97s6.68-11.96-6.62-11.56l-63.52,34.28l-45.44,76.13L221.79,157.68z"/>
<path class="st6" d="M309.45,99.86c0,0,4.9,12.11,2.88,14.42c-2.02,2.31-2.31,3.22-7.5,4.35s-5.77,4.01-8.94,4.01
	s-18.03,3.75-27.47,5.19s0.39,1.87,10.46,0s21.63-5.81,27.68-1.9c6.06,3.91,6.63,2.37,9.52,3.14c2.88,0.77,6.86,1.28,10.09,0
	c3.24-1.28,4.33-10.72,8.36-10.45c4.04,0.26,4.04-8.68,16.44-8.39l4.61-8.35c0,0-4.33-1.42-9.52,1.59
	c-5.19,3.01-13.14,4.16-16.66,6.47c-3.52,2.31-4.68,5.48-4.68,0.87s4.04-6.92-0.58-10.96C319.54,95.82,306.85,98.13,309.45,99.86z"
	/>
<polyline class="st0" points="238.13,101.09 257.26,118.62 268.42,105.56 250.49,88.33 "/>
<path class="st7" d="M203.66,72.39l-18.53,115.99v8.37c0,0,6.98,5.58,9.27,2.39c2.29-3.19,4.68-5.18,4.68-5.18
	c3.59-3.19,4.78,1.99,7.17-6.38c2.39-8.37,2.79,0.4,7.57-7.57s13.55-6.38,13.55-13.15s0.8-5.58,0-13.15
	c-0.8-7.57-2.79-16.74-2.79-24.71s6.38-1.69,9.17-12.8s9.17-11.51,9.17-15.1s12.75-3.19,13.15-9.17c0.4-5.98,11.56-8.37,11.56-12.36
	s3.99-4.37,4.38-13.15c0.4-8.77,3.19-5.59,5.58-6.78s7.57-1.59,7.57-4.38c0-2.79,9.57-3.59,10.36-9.96s8.77-3.19,11.56-10.76
	c2.79-7.57,5.98-2.39,7.17-6.38c1.2-3.99,4.78-3.19,4.78-4.38c0-1.2,3.59-1.2,3.59-3.99s3.59-2.79,3.59-5.18s3.19-3.59,3.19-3.59
	s-86.89,31.09-113.59,55.4"/>
<path class="st0" d="M205.05,77.57L191.5,66.81c0,0,0-8.37,10.76-11.56l13.55,11.16C215.81,66.41,212.62,77.97,205.05,77.57z"/>
</svg>
