<?xml version="1.0" encoding="utf-8"?>
<!-- Generator: Adobe Illustrator 23.0.3, SVG Export Plug-In . SVG Version: 6.00 Build 0)  -->
<svg version="1.1" id="Layer_1" xmlns="http://www.w3.org/2000/svg" xmlns:xlink="http://www.w3.org/1999/xlink" x="0px" y="0px"
	 viewBox="0 0 800 800" style="enable-background:new 0 0 800 800;" xml:space="preserve">
<style type="text/css">
	.st0{opacity:0.83;fill:#F1E923;}
	.st1{opacity:0.83;fill:#EEDA13;}
	.st2{opacity:0.83;fill:#F37767;}
	.st3{opacity:0.83;fill:none;}
	.st4{fill:#E8CC20;}
	.st5{opacity:0.83;}
	.st6{fill:#C0D72F;}
</style>
<path class="st0" d="M247.17,206.57c0,0-45.7,19.26-88.38-31.15S154.5,71.19,154.5,71.19s26.55-48.48,86.58-53.29
	s85.43,60.06,87.78,78.4s-1.38,34.61-1.38,34.61l-89.95-9.65C237.54,121.26,229.59,172.54,247.17,206.57z"/>
<path class="st1" d="M294.12,126.52c0,0,19.91-74.59-57.64-93.84c0,0-51.16-6.21-74.53,26.24s-28.28,73.7-4.31,97.02
	s52.93,32.97,80.47,21.22c0,0-6.81-28.73-0.58-55.89L294.12,126.52z"/>
<polygon class="st0" points="215.48,111.16 284.57,106.51 284.07,126.1 237.54,121.26 237.87,134.3 "/>
<path class="st0" d="M204.33,41.89l6.25,63.87l37.09-61.34C247.67,44.41,214.6,31.76,204.33,41.89z"/>
<path class="st0" d="M213.79,108.2l47.38-54.49c0,0,22.67,15.49,20.63,35.47L213.79,108.2z"/>
<path class="st2" d="M401.69,701.66c0,0-15.06-29.17,5.61-155.73c0,0,10.74-67.82,24.9-106.06c1.77-4.77,5.07-8.82,9.35-11.56
	c2.36-1.51,5.4-3.21,9.25-4.94c14.83-6.66,29.91-19.43,45.01-54.73s14.62-46.8,21.81-59.78c7.18-12.98,13.88-18.56,27.24-21.77
	s43.16-6.74,66.39-24.56c23.23-17.82,37.11-62.73,38.18-67.07c1.07-4.33,2.84-21.51,2.84-21.51s-161.71-21.82-205.28-27.07
	s-199.71-27.82-209.45-25.63c0,0-7.28,55.23,9.64,85.31s59.13,45.59,64.61,49.29c5.48,3.71,19.27,8.51,23.67,35.44
	c4.4,26.94-2.12,78.53,16.14,100.09c18.49,21.83,36.18,28.02,37.03,39.83c0,0,4.06,50.39-9.43,145.94
	c-13.48,95.55-29.55,114.55-29.55,114.55s-1.54,2.07-2.72,2.08s0.66-0.18,0.66-0.18s41.25,5.99,54.93,10.97"/>
<path class="st3" d="M339.27,354.37c0,0,14.31,27.44,69.17,34.41c54.87,6.97,77.56-7.71,85.58-16.06"/>
<path class="st4" d="M333.42,282.8c0,0,3.51,67.37,7.2,81.12c0,0,27.13,21.52,74.97,25.82c47.84,4.3,72.1-4.16,72.1-4.16
	s12.89-20.87,26.16-68.65c3.8-13.67,3.97-13.62,3.97-13.62S428.57,316.01,333.42,282.8z"/>
<path class="st0" d="M212.79,115.79l25.89,52.03c0,0-28.47,12.41-37.45-0.55L212.79,115.79z"/>
<path class="st4" d="M236.21,146.89c0,0-2.86,49.79,18.66,72.21s57.46,36.29,68.16,45.86c10.7,9.57,14.55,35.79,14.55,35.79
	l174.11,22.96c0,0,12.07-31.77,29.89-34.86c17.81-3.09,56.48-12.09,73.29-29.33c21.29-21.84,32.27-51.4,34.57-64.05
	C649.43,195.47,420.54,176.09,236.21,146.89z"/>
<path class="st2" d="M347.58,693.62c0,0-74.84-0.81-107.32,24.71c-32.47,25.52,66.58,73.23,142.86,72.89
	c76.28-0.34,123.57-12.12,114.64-38.94S397.41,699.3,347.58,693.62z"/>
<path class="st0" d="M204.19,102.83l-17.48-55.79c0,0-25.35,14.81-23.17,30.85L204.19,102.83z"/>
<path class="st0" d="M205.18,109.8l-48.87-13.29c0,0-8.46,19.95-0.22,33.9L205.18,109.8z"/>
<path class="st0" d="M207.4,113.31l-44.72,24.53c0,0,14.11,22.6,28.41,23.23L207.4,113.31z"/>
<g class="st5">
	<g>
		<path class="st6" d="M387.34,153.2c3.67,0,3.67-5.7,0-5.7C383.68,147.5,383.67,153.2,387.34,153.2L387.34,153.2z"/>
	</g>
</g>
<g class="st5">
	<g>
		<path class="st6" d="M387.94,156.54c8.18,0,8.2-12.71,0-12.71C379.76,143.82,379.75,156.54,387.94,156.54L387.94,156.54z"/>
	</g>
</g>
<g class="st5">
	<g>
		<path class="st6" d="M366.06,137.9c8.18,0,8.2-12.71,0-12.71C357.88,125.19,357.87,137.9,366.06,137.9L366.06,137.9z"/>
	</g>
</g>
<g class="st5">
	<g>
		<path class="st6" d="M345.48,152.85c8.18,0,8.2-12.71,0-12.71C337.3,140.13,337.28,152.85,345.48,152.85L345.48,152.85z"/>
	</g>
</g>
<g class="st5">
	<g>
		<path class="st6" d="M317.37,134.35c8.18,0,8.19-12.71,0-12.71C309.19,121.63,309.18,134.35,317.37,134.35L317.37,134.35z"/>
	</g>
</g>
<g class="st5">
	<g>
		<path class="st6" d="M287.78,145.24c8.18,0,8.2-12.71,0-12.71C279.6,132.53,279.59,145.24,287.78,145.24L287.78,145.24z"/>
	</g>
</g>
<g class="st5">
	<g>
		<path class="st6" d="M307.59,157.87c8.18,0,8.2-12.71,0-12.71C299.41,145.16,299.39,157.87,307.59,157.87L307.59,157.87z"/>
	</g>
</g>
<g class="st5">
	<g>
		<path class="st6" d="M325.8,146.44c8.18,0,8.19-12.71,0-12.71C317.62,133.72,317.61,146.44,325.8,146.44L325.8,146.44z"/>
	</g>
</g>
<g class="st5">
	<g>
		<path class="st6" d="M292.13,126.72c8.18,0,8.2-12.71,0-12.71C283.95,114.01,283.94,126.72,292.13,126.72L292.13,126.72z"/>
	</g>
</g>
<g class="st5">
	<g>
		<path class="st6" d="M280.98,135.28c8.18,0,8.2-12.71,0-12.71C272.8,122.56,272.79,135.28,280.98,135.28L280.98,135.28z"/>
	</g>
</g>
<g class="st5">
	<g>
		<path class="st6" d="M269.44,157.62c8.18,0,8.2-12.71,0-12.71C261.26,144.9,261.25,157.62,269.44,157.62L269.44,157.62z"/>
	</g>
</g>
<g class="st5">
	<g>
		<path class="st6" d="M257.17,142.16c8.18,0,8.2-12.71,0-12.71C248.98,129.44,248.97,142.16,257.17,142.16L257.17,142.16z"/>
	</g>
</g>
<g class="st5">
	<g>
		<path class="st6" d="M262.43,127.58c8.18,0,8.2-12.71,0-12.71C254.25,114.87,254.23,127.58,262.43,127.58L262.43,127.58z"/>
	</g>
</g>
<g class="st5">
	<g>
		<path class="st6" d="M243.64,128.92c8.18,0,8.2-12.71,0-12.71C235.46,116.21,235.44,128.92,243.64,128.92L243.64,128.92z"/>
	</g>
</g>
<g class="st5">
	<g>
		<path class="st6" d="M238.17,148.72c8.18,0,8.19-12.71,0-12.71C229.98,136.01,229.97,148.72,238.17,148.72L238.17,148.72z"/>
	</g>
</g>
<g class="st5">
	<g>
		<path class="st6" d="M381.84,173.87c8.18,0,8.2-12.71,0-12.71C373.66,161.15,373.64,173.87,381.84,173.87L381.84,173.87z"/>
	</g>
</g>
<g class="st5">
	<g>
		<path class="st6" d="M372.85,166c8.18,0,8.2-12.71,0-12.71C364.67,153.29,364.66,166,372.85,166L372.85,166z"/>
	</g>
</g>
<g class="st5">
	<g>
		<path class="st6" d="M423.21,156.89c8.18,0,8.2-12.71,0-12.71C415.03,144.18,415.02,156.89,423.21,156.89L423.21,156.89z"/>
	</g>
</g>
<g class="st5">
	<g>
		<path class="st6" d="M425.42,169.12c8.18,0,8.19-12.71,0-12.71C417.24,156.4,417.22,169.12,425.42,169.12L425.42,169.12z"/>
	</g>
</g>
<g class="st5">
	<g>
		<path class="st6" d="M459.41,150.21c8.18,0,8.2-12.71,0-12.71C451.23,137.5,451.21,150.21,459.41,150.21L459.41,150.21z"/>
	</g>
</g>
<g class="st5">
	<g>
		<path class="st6" d="M457.49,164.75c8.18,0,8.2-12.71,0-12.71C449.31,152.04,449.3,164.75,457.49,164.75L457.49,164.75z"/>
	</g>
</g>
<g class="st5">
	<g>
		<path class="st6" d="M454.01,176.7c8.18,0,8.2-12.71,0-12.71C445.82,163.99,445.81,176.7,454.01,176.7L454.01,176.7z"/>
	</g>
</g>
<g class="st5">
	<g>
		<path class="st6" d="M489.74,177.12c8.18,0,8.2-12.71,0-12.71C481.56,164.41,481.55,177.12,489.74,177.12L489.74,177.12z"/>
	</g>
</g>
<g class="st5">
	<g>
		<path class="st6" d="M516.37,188.74c8.18,0,8.2-12.71,0-12.71C508.19,176.03,508.17,188.74,516.37,188.74L516.37,188.74z"/>
	</g>
</g>
<g class="st5">
	<g>
		<path class="st6" d="M514.41,174.65c8.18,0,8.2-12.71,0-12.71C506.23,161.93,506.21,174.65,514.41,174.65L514.41,174.65z"/>
	</g>
</g>
<g class="st5">
	<g>
		<path class="st6" d="M511.12,167.05c8.18,0,8.19-12.71,0-12.71C502.93,154.34,502.92,167.05,511.12,167.05L511.12,167.05z"/>
	</g>
</g>
<g class="st5">
	<g>
		<path class="st6" d="M563.59,174.45c8.18,0,8.2-12.71,0-12.71C555.41,161.73,555.4,174.45,563.59,174.45L563.59,174.45z"/>
	</g>
</g>
<g class="st5">
	<g>
		<path class="st6" d="M562.29,184.3c8.18,0,8.19-12.71,0-12.71C554.11,171.59,554.1,184.3,562.29,184.3L562.29,184.3z"/>
	</g>
</g>
<g class="st5">
	<g>
		<path class="st6" d="M549.63,182.63c8.18,0,8.19-12.71,0-12.71C541.45,169.92,541.43,182.63,549.63,182.63L549.63,182.63z"/>
	</g>
</g>
<g class="st5">
	<g>
		<path class="st6" d="M612.64,193.33c8.18,0,8.2-12.71,0-12.71C604.46,180.61,604.45,193.33,612.64,193.33L612.64,193.33z"/>
	</g>
</g>
<g class="st5">
	<g>
		<path class="st6" d="M595.59,181.53c8.18,0,8.2-12.71,0-12.71C587.41,168.82,587.39,181.53,595.59,181.53L595.59,181.53z"/>
	</g>
</g>
<g class="st5">
	<g>
		<path class="st6" d="M585.58,203.12c8.18,0,8.2-12.71,0-12.71C577.4,190.41,577.39,203.12,585.58,203.12L585.58,203.12z"/>
	</g>
</g>
<g class="st5">
	<g>
		<path class="st6" d="M588.21,179.6c8.18,0,8.2-12.71,0-12.71C580.02,166.89,580.01,179.6,588.21,179.6L588.21,179.6z"/>
	</g>
</g>
<g class="st5">
	<g>
		<path class="st6" d="M622.17,182.65c8.18,0,8.2-12.71,0-12.71C613.98,169.94,613.97,182.65,622.17,182.65L622.17,182.65z"/>
	</g>
</g>
<g class="st5">
	<g>
		<path class="st6" d="M626.62,192.3c8.18,0,8.2-12.71,0-12.71C618.44,179.59,618.42,192.3,626.62,192.3L626.62,192.3z"/>
	</g>
</g>
<g class="st5">
	<g>
		<path class="st6" d="M661.18,176.34c8.18,0,8.2-12.71,0-12.71C653,163.63,652.98,176.34,661.18,176.34L661.18,176.34z"/>
	</g>
</g>
<g class="st5">
	<g>
		<path class="st6" d="M646.06,189.62c8.18,0,8.19-12.71,0-12.71C637.88,176.9,637.87,189.62,646.06,189.62L646.06,189.62z"/>
	</g>
</g>
<g class="st5">
	<g>
		<path class="st6" d="M647.89,197.5c8.18,0,8.2-12.71,0-12.71C639.71,184.78,639.69,197.5,647.89,197.5L647.89,197.5z"/>
	</g>
</g>
<g class="st5">
	<g>
		<path class="st6" d="M634.71,185.26c8.18,0,8.2-12.71,0-12.71C626.53,172.54,626.51,185.26,634.71,185.26L634.71,185.26z"/>
	</g>
</g>
<g class="st5">
	<g>
		<path class="st6" d="M441.21,153.39c8.18,0,8.19-12.71,0-12.71C433.02,140.68,433.01,153.39,441.21,153.39L441.21,153.39z"/>
	</g>
</g>
<g class="st5">
	<g>
		<path class="st6" d="M438.2,170.78c8.18,0,8.19-12.71,0-12.71C430.02,158.07,430.01,170.78,438.2,170.78L438.2,170.78z"/>
	</g>
</g>
<g class="st5">
	<g>
		<path class="st6" d="M404.31,149.95c8.18,0,8.19-12.71,0-12.71C396.12,137.23,396.11,149.95,404.31,149.95L404.31,149.95z"/>
	</g>
</g>
<g class="st5">
	<g>
		<path class="st6" d="M408.42,175.39c8.18,0,8.2-12.71,0-12.71C400.24,162.68,400.23,175.39,408.42,175.39L408.42,175.39z"/>
	</g>
</g>
<g class="st5">
	<g>
		<path class="st6" d="M369.12,152.42c8.18,0,8.2-12.71,0-12.71C360.93,139.71,360.92,152.42,369.12,152.42L369.12,152.42z"/>
	</g>
</g>
<g class="st5">
	<g>
		<path class="st6" d="M355.93,174.17c8.18,0,8.2-12.71,0-12.71C347.75,161.45,347.74,174.17,355.93,174.17L355.93,174.17z"/>
	</g>
</g>
<g class="st5">
	<g>
		<path class="st6" d="M341.54,167.29c8.18,0,8.2-12.71,0-12.71C333.36,154.57,333.35,167.29,341.54,167.29L341.54,167.29z"/>
	</g>
</g>
<g class="st5">
	<g>
		<path class="st6" d="M337.61,140.44c8.18,0,8.2-12.71,0-12.71C329.43,127.73,329.42,140.44,337.61,140.44L337.61,140.44z"/>
	</g>
</g>
<g class="st5">
	<g>
		<path class="st6" d="M301.95,141.08c8.18,0,8.2-12.71,0-12.71C293.77,128.36,293.76,141.08,301.95,141.08L301.95,141.08z"/>
	</g>
</g>
<g class="st5">
	<g>
		<path class="st6" d="M292.15,166.82c8.18,0,8.2-12.71,0-12.71C283.97,154.11,283.96,166.82,292.15,166.82L292.15,166.82z"/>
	</g>
</g>
<g class="st5">
	<g>
		<path class="st6" d="M327.13,163.25c8.18,0,8.2-12.71,0-12.71C318.95,150.54,318.94,163.25,327.13,163.25L327.13,163.25z"/>
	</g>
</g>
<g class="st5">
	<g>
		<path class="st6" d="M272.08,146.39c8.18,0,8.19-12.71,0-12.71C263.9,133.67,263.88,146.39,272.08,146.39L272.08,146.39z"/>
	</g>
</g>
<g class="st5">
	<g>
		<path class="st6" d="M439.6,184.49c8.18,0,8.19-12.71,0-12.71C431.41,171.77,431.4,184.49,439.6,184.49L439.6,184.49z"/>
	</g>
</g>
<g class="st5">
	<g>
		<path class="st6" d="M481.87,163.38c8.18,0,8.19-12.71,0-12.71C473.69,150.66,473.67,163.38,481.87,163.38L481.87,163.38z"/>
	</g>
</g>
<g class="st5">
	<g>
		<path class="st6" d="M478.06,176.04c8.18,0,8.2-12.71,0-12.71C469.88,163.32,469.87,176.04,478.06,176.04L478.06,176.04z"/>
	</g>
</g>
<g class="st5">
	<g>
		<path class="st6" d="M499.72,181.74c8.18,0,8.19-12.71,0-12.71C491.54,169.03,491.53,181.74,499.72,181.74L499.72,181.74z"/>
	</g>
</g>
<g class="st5">
	<g>
		<path class="st6" d="M534.09,172.04c8.18,0,8.2-12.71,0-12.71C525.91,159.33,525.89,172.04,534.09,172.04L534.09,172.04z"/>
	</g>
</g>
<g class="st5">
	<g>
		<path class="st6" d="M537.48,194.9c8.18,0,8.2-12.71,0-12.71C529.3,182.19,529.28,194.9,537.48,194.9L537.48,194.9z"/>
	</g>
</g>
<g class="st5">
	<g>
		<path class="st6" d="M577.73,169.66c8.18,0,8.2-12.71,0-12.71C569.55,156.94,569.54,169.66,577.73,169.66L577.73,169.66z"/>
	</g>
</g>
<g class="st5">
	<g>
		<path class="st6" d="M567.49,195.28c8.18,0,8.2-12.71,0-12.71C559.3,182.57,559.29,195.28,567.49,195.28L567.49,195.28z"/>
	</g>
</g>
<g class="st5">
	<g>
		<path class="st6" d="M636.26,201.9c8.18,0,8.2-12.71,0-12.71C628.08,189.18,628.07,201.9,636.26,201.9L636.26,201.9z"/>
	</g>
</g>
<g class="st5">
	<g>
		<path class="st6" d="M629.09,174.47c8.18,0,8.2-12.71,0-12.71C620.91,161.75,620.89,174.47,629.09,174.47L629.09,174.47z"/>
	</g>
</g>
<g class="st5">
	<g>
		<path class="st6" d="M244.98,154.35c8.18,0,8.19-12.71,0-12.71C236.8,141.64,236.79,154.35,244.98,154.35L244.98,154.35z"/>
	</g>
</g>
<g class="st5">
	<g>
		<path class="st6" d="M233.01,140.41c8.18,0,8.19-12.71,0-12.71C224.83,127.7,224.81,140.41,233.01,140.41L233.01,140.41z"/>
	</g>
</g>
</svg>
