<?xml version="1.0" encoding="utf-8"?>
<!-- Generator: Adobe Illustrator 23.0.3, SVG Export Plug-In . SVG Version: 6.00 Build 0)  -->
<svg version="1.1" id="Layer_1" xmlns="http://www.w3.org/2000/svg" xmlns:xlink="http://www.w3.org/1999/xlink" x="0px" y="0px"
	 viewBox="0 0 800 800" style="enable-background:new 0 0 800 800;" xml:space="preserve">
<style type="text/css">
	.st0{opacity:0.79;fill:#E0E674;}
	.st1{opacity:0.61;fill:#F6EB6C;}
	.st2{opacity:0.61;fill:#B1D463;}
	.st3{fill:#F8E7DD;}
	.st4{opacity:0.88;fill:#ED1C24;}
	.st5{opacity:0.41;fill:#E0E674;}
	.st6{opacity:0.61;fill:#A1CD3A;}
	.st7{fill:#F47D6D;}
	.st8{fill:#F4EFC1;}
</style>
<path class="st0" d="M145.44,685.52c-5.96-0.36-5.43-369.04-6.46-401.77c-0.17-5.34,4.02-69.03-0.82-71.28l-0.18-11.67
	c7.46-72.09,260.38-63.39,260.38-63.39c234.28-8.7,260.38,58.42,260.38,58.42l-29.83,498.39c0,0-11.91,44.72-95.98,67.02
	c-50.73,13.46,0,0,0,0s-74.89,19.74-128.98,19.98c-54.09,0.24,0,0,0,0s-76.57,5.35-135.44-12.05s0,0,0,0
	S184.36,750.93,145.44,685.52S145.44,685.52,145.44,685.52"/>
<path class="st1" d="M221.55,230.67c0,0,223.22-19.87,291.3,6.55C512.85,237.22,305.12,260.54,221.55,230.67z"/>
<path class="st2" d="M581.49,180.49l65.84-97.35l23.81-33.62c0,0,25.21-31.52,27.32-32.92c2.1-1.4-6.3,15.41-11.91,27.32
	S581.49,195.83,581.49,195.83"/>
<path class="st3" d="M421.8,212.71c0,0-88.95,26.61-122.57,58.13s8.4,86.15,24.51,116.27c16.11,30.12,79.14,102.26,120.47,95.95
	s99.43-49.84,98.04-64.84s0.01-23.41-37.11-57.03S457.52,206.4,421.8,212.71z"/>
<path class="st4" d="M608.8,178.39c0,0-17.51-42.72-55.33-34.32c-37.82,8.4-51.83,36.28-52.53,51.76
	c-0.7,15.48-2.8,34.39,11.91,41.39c14.71,7,65.14,9.81,83.35,0C614.41,227.42,612.74,185.96,608.8,178.39z"/>
<path class="st5" d="M658.75,195.83l-29.83,498.39c0,0-16.16,75.82-224.96,87s-258.52-95.7-258.52-95.7l-7.46-484.72
	c0,0,67.12,47.23,251.06,43.5S640.1,215.72,658.75,195.83z"/>
<path class="st6" d="M146.24,256.19c0,0,93.52,53.87,252.13,46.17s220.95-17.51,252.46-45.53l-22.41,347.4c0,0-7,79.14-167.39,86.15
	S239,667.96,239,667.96s-70.74-20.11-89.65-54.53L146.24,256.19z"/>
<path class="st4" d="M700.51,59.68c0,0-26.42-37.82-82.9-10.51s-39.67,71.44-39.67,71.44s12.61,21.71,23.81,21.01
	s18.21,2.8,18.91,9.81c0.7,7,9.11,12.61,39.22,9.81c30.12-2.8,51.13-34.47,52.53-63.11C713.81,69.48,700.51,59.68,700.51,59.68z"/>
<path class="st7" d="M398.36,690.07"/>
<g>
	<g>
		<path class="st8" d="M225.56,337.16c5.45,0,5.46-8.47,0-8.47C220.11,328.69,220.1,337.16,225.56,337.16L225.56,337.16z"/>
	</g>
</g>
<g>
	<g>
		<path class="st8" d="M225.56,432.27c5.45,0,5.46-8.47,0-8.47C220.11,423.8,220.1,432.27,225.56,432.27L225.56,432.27z"/>
	</g>
</g>
<g>
	<g>
		<path class="st8" d="M228.16,506.63c5.45,0,5.46-8.47,0-8.47C222.71,498.16,222.7,506.63,228.16,506.63L228.16,506.63z"/>
	</g>
</g>
<g>
	<g>
		<path class="st8" d="M226.43,614.71c5.45,0,5.46-8.47,0-8.47C220.98,606.24,220.97,614.71,226.43,614.71L226.43,614.71z"/>
	</g>
</g>
<g>
	<g>
		<path class="st8" d="M227.29,570.61c5.45,0,5.46-8.47,0-8.47C221.84,562.15,221.83,570.61,227.29,570.61L227.29,570.61z"/>
	</g>
</g>
<g>
	<g>
		<path class="st8" d="M227.29,531.71c5.45,0,5.46-8.47,0-8.47C221.84,523.24,221.83,531.71,227.29,531.71L227.29,531.71z"/>
	</g>
</g>
<g>
	<g>
		<path class="st8" d="M229.88,477.23c5.45,0,5.46-8.47,0-8.47C224.44,468.76,224.43,477.23,229.88,477.23L229.88,477.23z"/>
	</g>
</g>
<g>
	<g>
		<path class="st8" d="M229.02,595.69c5.45,0,5.46-8.47,0-8.47C223.57,587.22,223.56,595.69,229.02,595.69L229.02,595.69z"/>
	</g>
</g>
<g>
	<g>
		<path class="st8" d="M229.88,649.3c5.45,0,5.46-8.47,0-8.47C224.44,640.83,224.43,649.3,229.88,649.3L229.88,649.3z"/>
	</g>
</g>
<g>
	<g>
		<path class="st8" d="M350.93,682.15c5.45,0,5.46-8.47,0-8.47C345.49,673.68,345.48,682.15,350.93,682.15L350.93,682.15z"/>
	</g>
</g>
<g>
	<g>
		<path class="st8" d="M350.93,664c5.45,0,5.46-8.47,0-8.47C345.49,655.53,345.48,664,350.93,664L350.93,664z"/>
	</g>
</g>
<g>
	<g>
		<path class="st8" d="M350.93,649.3c5.45,0,5.46-8.47,0-8.47C345.49,640.83,345.48,649.3,350.93,649.3L350.93,649.3z"/>
	</g>
</g>
<g>
	<g>
		<path class="st8" d="M350.93,626.82c5.45,0,5.46-8.47,0-8.47C345.49,618.35,345.48,626.82,350.93,626.82L350.93,626.82z"/>
	</g>
</g>
<g>
	<g>
		<path class="st8" d="M356.99,570.61c5.45,0,5.46-8.47,0-8.47C351.54,562.15,351.53,570.61,356.99,570.61L356.99,570.61z"/>
	</g>
</g>
<g>
	<g>
		<path class="st8" d="M357.85,515.28c5.45,0,5.46-8.47,0-8.47C352.4,506.81,352.39,515.28,357.85,515.28L357.85,515.28z"/>
	</g>
</g>
<g>
	<g>
		<path class="st8" d="M358.72,445.24c5.45,0,5.46-8.47,0-8.47C353.27,436.77,353.26,445.24,358.72,445.24L358.72,445.24z"/>
	</g>
</g>
<g>
	<g>
		<path class="st8" d="M354.39,345.81c5.45,0,5.46-8.47,0-8.47C348.94,337.34,348.93,345.81,354.39,345.81L354.39,345.81z"/>
	</g>
</g>
<g>
	<g>
		<path class="st8" d="M454.69,681.29c5.45,0,5.46-8.47,0-8.47C449.24,672.82,449.23,681.29,454.69,681.29L454.69,681.29z"/>
	</g>
</g>
<g>
	<g>
		<path class="st8" d="M454.69,668.32c5.45,0,5.46-8.47,0-8.47C449.24,659.85,449.23,668.32,454.69,668.32L454.69,668.32z"/>
	</g>
</g>
<g>
	<g>
		<path class="st8" d="M454.69,653.62c5.45,0,5.46-8.47,0-8.47C449.24,645.15,449.23,653.62,454.69,653.62L454.69,653.62z"/>
	</g>
</g>
<g>
	<g>
		<path class="st8" d="M454.69,628.55c5.45,0,5.46-8.47,0-8.47C449.24,620.08,449.23,628.55,454.69,628.55L454.69,628.55z"/>
	</g>
</g>
<g>
	<g>
		<path class="st8" d="M454.69,574.94c5.45,0,5.46-8.47,0-8.47C449.24,566.47,449.23,574.94,454.69,574.94L454.69,574.94z"/>
	</g>
</g>
<g>
	<g>
		<path class="st8" d="M455.56,499.71c5.45,0,5.46-8.47,0-8.47C450.11,491.25,450.1,499.71,455.56,499.71L455.56,499.71z"/>
	</g>
</g>
<g>
	<g>
		<path class="st8" d="M455.56,446.97c5.45,0,5.46-8.47,0-8.47C450.11,438.5,450.1,446.97,455.56,446.97L455.56,446.97z"/>
	</g>
</g>
<g>
	<g>
		<path class="st8" d="M455.56,430.54c5.45,0,5.46-8.47,0-8.47C450.11,422.07,450.1,430.54,455.56,430.54L455.56,430.54z"/>
	</g>
</g>
<g>
	<g>
		<path class="st8" d="M455.56,415.84c5.45,0,5.46-8.47,0-8.47C450.11,407.37,450.1,415.84,455.56,415.84L455.56,415.84z"/>
	</g>
</g>
<g>
	<g>
		<path class="st8" d="M457.29,325.06c5.45,0,5.46-8.47,0-8.47C451.84,316.59,451.83,325.06,457.29,325.06L457.29,325.06z"/>
	</g>
</g>
<g>
	<g>
		<path class="st8" d="M578.02,662.45c5.45,0,5.46-8.47,0-8.47C572.57,653.98,572.56,662.45,578.02,662.45L578.02,662.45z"/>
	</g>
</g>
<g>
	<g>
		<path class="st8" d="M578.02,637.7c5.45,0,5.46-8.47,0-8.47C572.57,629.23,572.56,637.7,578.02,637.7L578.02,637.7z"/>
	</g>
</g>
<g>
	<g>
		<path class="st8" d="M578.02,626.44c5.45,0,5.46-8.47,0-8.47C572.57,617.97,572.56,626.44,578.02,626.44L578.02,626.44z"/>
	</g>
</g>
<g>
	<g>
		<path class="st8" d="M578.02,620.82c5.45,0,5.46-8.47,0-8.47C572.57,612.35,572.56,620.82,578.02,620.82L578.02,620.82z"/>
	</g>
</g>
<g>
	<g>
		<path class="st8" d="M578.02,608.44c5.45,0,5.46-8.47,0-8.47C572.57,599.97,572.56,608.44,578.02,608.44L578.02,608.44z"/>
	</g>
</g>
<g>
	<g>
		<path class="st8" d="M578.02,587.06c5.45,0,5.46-8.47,0-8.47C572.57,578.59,572.56,587.06,578.02,587.06L578.02,587.06z"/>
	</g>
</g>
<g>
	<g>
		<path class="st8" d="M576.89,535.29c5.45,0,5.46-8.47,0-8.47C571.44,526.82,571.43,535.29,576.89,535.29L576.89,535.29z"/>
	</g>
</g>
<g>
	<g>
		<path class="st8" d="M574.64,461.02c5.45,0,5.46-8.47,0-8.47C569.19,452.55,569.18,461.02,574.64,461.02L574.64,461.02z"/>
	</g>
</g>
<g>
	<g>
		<path class="st8" d="M574.64,327.1c5.45,0,5.46-8.47,0-8.47C569.19,318.64,569.18,327.1,574.64,327.1L574.64,327.1z"/>
	</g>
</g>
<g>
	<g>
		<path class="st8" d="M327.68,653.66c5.45,0,5.46-8.47,0-8.47C322.23,645.2,322.23,653.66,327.68,653.66L327.68,653.66z"/>
	</g>
</g>
<g>
	<g>
		<path class="st8" d="M378.46,620.55c5.45,0,5.46-8.47,0-8.47C373.01,612.08,373.01,620.55,378.46,620.55L378.46,620.55z"/>
	</g>
</g>
<g>
	<g>
		<path class="st8" d="M484.44,671.33c5.45,0,5.46-8.47,0-8.47C478.99,662.86,478.98,671.33,484.44,671.33L484.44,671.33z"/>
	</g>
</g>
<g>
	<g>
		<path class="st8" d="M563.92,611.72c5.45,0,5.46-8.47,0-8.47C558.47,603.25,558.46,611.72,563.92,611.72L563.92,611.72z"/>
	</g>
</g>
<g>
	<g>
		<path class="st8" d="M610.29,556.52c5.45,0,5.46-8.47,0-8.47C604.84,548.05,604.83,556.52,610.29,556.52L610.29,556.52z"/>
	</g>
</g>
<g>
	<g>
		<path class="st8" d="M208.46,558.73c5.45,0,5.46-8.47,0-8.47C203.01,550.26,203,558.73,208.46,558.73L208.46,558.73z"/>
	</g>
</g>
<g>
	<g>
		<path class="st8" d="M261.45,647.04c5.45,0,5.46-8.47,0-8.47C256,638.57,255.99,647.04,261.45,647.04L261.45,647.04z"/>
	</g>
</g>
</svg>
