<?xml version="1.0" encoding="utf-8"?>
<!-- Generator: Adobe Illustrator 23.0.3, SVG Export Plug-In . SVG Version: 6.00 Build 0)  -->
<svg version="1.1" id="Layer_1" xmlns="http://www.w3.org/2000/svg" xmlns:xlink="http://www.w3.org/1999/xlink" x="0px" y="0px"
	 viewBox="0 0 800 800" style="enable-background:new 0 0 800 800;" xml:space="preserve">
<style type="text/css">
	.st0{fill:#BE3D93;}
	.st1{fill:#E71B45;}
	.st2{fill:#F595AC;}
	.st3{opacity:0.93;fill:#F47D6F;}
	.st4{opacity:0.85;fill:#F2B9D5;}
	.st5{fill:#59C2B0;}
	.st6{fill:#ADD13C;}
	.st7{fill:#7CCCC1;}
</style>
<path class="st0" d="M267.6,114.25l163.31,123.6c0,0,16.62,9.73,21.48,10.54c0,0-10.54-8.92-17.02-14.59
	c-6.48-5.67-169.8-129.68-169.8-129.68"/>
<path class="st1" d="M311.78,126.4c0,0-27.56,8.1-34.85,25.94c-7.29,17.83-6.08,22.69-5.27,27.56c0.81,4.86,6.89,4.86,5.27,12.16
	c-1.62,7.29,4.05,13.37,4.05,18.24c0,4.86,1.62,16.62,5.27,19.86c3.65,3.24,7.7,9.73,7.7,11.35c0,1.62,7.09,11.75,6.99,14.18
	s4.36,8.51,6.39,10.94c2.03,2.43,4.46,2.03,4.46,2.03s11.35,0.05,19.05-8.48c7.7-8.54,10.94-7.73,12.16-14.62
	c1.22-6.89,7.29-10.54,8.1-13.78s2.43-7.29,4.86-10.54c2.43-3.24,4.46-4.05,4.86-8.92c0.41-4.86,8.44-1.66,8.51-11.35
	s4.86-11.35,4.86-21.88c0-10.54,2.84-14.18,0-21.88c-2.84-7.7-4.46-18.64-8.92-20.67s-9.32-6.48-14.18-7.29
	c-4.86-0.81-12.48-2.84-12.48-2.84"/>
<path class="st2" d="M293.95,138.97c0,0,4.86,4.05,0,8.51s-4.46,7.29-8.51,7.29s8.51,6.08,2.03,6.08c-6.48,0,5.67,16.21-0.41,15.4
	c-6.08-0.81,9.85,6.12,3.3,9.34s-9.26,4.03,0,5.25c9.26,1.22-5.43,2.05-0.11,6.7c5.32,4.65,3.7-2.24,5.32,4.65
	c1.62,6.89-10.27,13.78,0.54,17.43c10.81,3.65,7.56,3.65,7.56,8.1c0,4.46,4.05,5.67,4.05,11.75c0,6.08,1.22,16.62,2.03,19.05
	c0.81,2.43,7.5,4.03,7.5,4.03s8.71,0.83,9.12-8.09s2.03,1.22,4.05-9.32c2.03-10.54,10.94-9.32,10.13-12.97s1.32-6.08,0.05-8.92
	c-1.27-2.84,8.46-4.05,6.84-7.7s10.54-12.16,8.1-14.79c-2.43-2.63,7.7-10.05,3.44-13.03c-4.26-2.98,14.79-13.11,7.5-14.73
	c-7.29-1.62,4.05-4.86-2.84-9.32c-6.89-4.46,7.7-11.35,0.41-11.35s-2.84,0-7.29-4.86s-0.81-12.16-5.27-12.97
	c-4.46-0.81-12.56-4.05-12.56-4.05s-28.37-3.65-34.04-0.81S293.95,138.97,293.95,138.97z"/>
<path class="st3" d="M322.95,185.59c0,0-29.45,180.51-19.95,263.17s38.95,123.51,63.65,152.96c24.7,29.45,40.47,28.5,39.71,57
	s-9.31,63.65-31.16,73.16s-69.35,13.3-66.5,28.5c2.85,15.2,52.25,30.4,117.81,27.55c65.55-2.85,111.16-12.35,105.46-31.35
	c0,0-6.65-13.3-47.5-17.1c-40.85-3.8-49.4-47.5-51.3-61.75c-1.9-14.25-1.9-33.25,26.6-68.4c28.5-35.15,59.87-48.45,72.69-131.11
	s-18.53-292.62-19.48-292.62C512.01,185.59,399.9,192.24,322.95,185.59z"/>
<path class="st0" d="M418.35,497.12l43.28-282.6l14.45-74.55c0,0-0.59-6.35,1.99-8.41c2.57-2.06-0.51-2.57,3.09-5.66
	c3.6-3.09,3.6-3.35,5.15-3.09c1.54,0.26,1.8-3.35,4.12-3.09s5.66-1.31,6.18-0.01c0.51,1.3,4.89-2.34,4.89-0.52
	s105.55,43.01,105.55,43.01s3.86,14.16-6.18,14.93l-98.08-41.7c0,0-6.18-1.03-6.95,0.26c-0.77,1.29-1.03,1.29-3.86,1.29
	c-2.83,0-1.54,2.32-1.29,3.6c0.26,1.29-1.8,3.35-1.8,3.35l-21.37,121.76l-23.94,157.29l-11.58,74.15
	C431.99,497.12,423.76,499.19,418.35,497.12z"/>
<path class="st4" d="M312.18,262.57c0,0,22.17,5.68,35.47-0.02c13.3-5.7,32.3,0.32,40.85,2.53c8.55,2.22,30.4,6.33,38.95,0
	c8.55-6.33,20.9-0.91,31.35-0.77c10.45,0.14,38,0.81,45.6,0c7.6-0.81,19.45,0,19.45,0s8.2,60.97,11.01,122.24
	c1.58,34.4,0.68,71.37-2.43,91.67c-8.64,56.33-25.87,80.73-37.27,92.13c-11.4,11.4-35.42,38.98-35.42,38.98s-46.55-11.4-74.11,0
	l-8.1,4.21c0,0-49.81-45.63-68.17-117.18C291.03,424.81,303.57,298.89,312.18,262.57z"/>
<path class="st5" d="M229.51,160.85c0,0,10.94-4.86,14.59-8.92c3.65-4.05,7.7-10.13,10.94-14.99c3.24-4.86,6.89-11.75,10.54-15.8
	c3.65-4.05,8.1-20.67,20.26-24.72s14.59-15.8,22.29-19.86c7.7-4.05,10.13-8.51,10.13-12.56s8.1-0.41,8.1-7.29s2.43,4.46,2.43-7.7
	s4.46-9.32,4.86-14.18s3.24-5.27,3.24-8.1s6.79-12.16-6.74-11.75l-64.59,34.85l-46.2,77.4L229.51,160.85z"/>
<path class="st6" d="M318.63,102.05c0,0,4.98,12.31,2.93,14.66c-2.05,2.35-2.35,3.27-7.62,4.42c-5.28,1.15-5.86,4.08-9.09,4.08
	c-3.23,0-18.33,3.81-27.93,5.28c-9.6,1.47,0.4,1.9,10.63,0c10.23-1.9,21.99-5.91,28.15-1.93c6.16,3.98,6.74,2.41,9.68,3.2
	c2.93,0.78,6.97,1.31,10.26,0c3.29-1.31,4.4-10.9,8.5-10.63c4.1,0.27,4.1-8.82,16.71-8.53l4.69-8.49c0,0-4.4-1.44-9.68,1.62
	c-5.28,3.06-13.36,4.23-16.94,6.58c-3.58,2.35-4.76,5.57-4.76,0.88c0-4.69,4.1-7.04-0.59-11.14
	C328.89,97.95,315.99,100.29,318.63,102.05z"/>
<polyline class="st0" points="246.13,103.3 265.58,121.14 276.93,107.86 258.69,90.34 "/>
<path class="st7" d="M211.07,74.13l-18.84,117.93v8.51c0,0,7.09,5.67,9.42,2.43c2.33-3.24,4.76-5.27,4.76-5.27
	c3.65-3.24,4.86,2.03,7.29-6.48s2.84,0.41,7.7-7.7c4.86-8.1,13.78-6.48,13.78-13.37c0-6.89,0.81-5.67,0-13.37
	c-0.81-7.7-2.84-17.02-2.84-25.13s6.48-1.72,9.32-13.02s9.32-11.7,9.32-15.35s12.97-3.24,13.37-9.32
	c0.41-6.08,11.75-8.51,11.75-12.56c0-4.05,4.05-4.45,4.46-13.37s3.24-5.68,5.67-6.89c2.43-1.22,7.7-1.62,7.7-4.46
	s9.73-3.65,10.54-10.13c0.81-6.48,8.92-3.24,11.75-10.94c2.84-7.7,6.08-2.43,7.29-6.48s4.86-3.24,4.86-4.46
	c0-1.22,3.65-1.22,3.65-4.05s3.65-2.84,3.65-5.27s3.24-3.65,3.24-3.65s-88.34,31.61-115.49,56.33"/>
<path class="st0" d="M212.49,79.4l-13.78-10.94c0,0,0-8.51,10.94-11.75l13.78,11.35C223.43,68.05,220.19,79.8,212.49,79.4z"/>
</svg>
